<svg width="14" height="8" viewBox="0 0 14 8" fill="none" xmlns="http://www.w3.org/2000/svg">
<path d="M13.7762 0.66863L13.3176 0.221886C13.1733 0.0823677 12.9813 0.00550598 12.7761 0.00550598C12.571 0.00550598 12.3787 0.0823677 12.2344 0.221886L7.00313 5.28308L1.76584 0.21627C1.62174 0.0767516 1.42949 0 1.22438 0C1.01928 0 0.826917 0.0767516 0.682705 0.21627L0.224002 0.660262C-0.0746673 0.948988 -0.0746673 1.4193 0.224002 1.70802L6.45963 7.76237C6.60373 7.90177 6.79575 8 7.00267 8H7.00506C7.21029 8 7.4023 7.90166 7.5464 7.76237L13.7762 1.72443C13.9206 1.58502 13.9998 1.39364 14 1.19521C14 0.996669 13.9206 0.807928 13.7762 0.66863Z" fill="#2A3B53"/>
</svg>
