<svg width="17" height="15" viewBox="0 0 17 15" fill="none" xmlns="http://www.w3.org/2000/svg">
<path fill-rule="evenodd" clip-rule="evenodd" d="M13 8C13 11.3137 10.3137 14 7 14C3.68629 14 1 11.3137 1 8C1 4.68629 3.68629 2 7 2C8.40205 2 9.69179 2.4809 10.7133 3.28675L11.4246 2.57542C10.2187 1.59065 8.67832 1 7 1C3.13401 1 0 4.13401 0 8C0 11.866 3.13401 15 7 15C10.866 15 14 11.866 14 8C14 7.29004 13.8943 6.60477 13.6978 5.95906L12.876 6.78081C12.9573 7.17448 13 7.58226 13 8Z" fill="#2A3B53"/>
<path d="M4 6.53669L7.23142 9.7684L16.4998 0.5" stroke="#2A3B53"/>
</svg>
